PathFileType	4	(X/Y/Z)	c:/Users/goper/Files/vsCode/490R/osim_files/C07/C07_Fast_04.trc
DataRate	CameraRate	NumFrames	NumMarkers	Units                	OrigDataRate	OrigDataStartFrame	OrigNumFrames
250.00	250.00	8	36	mm	250.0	1108	2214
                Frame#	Time	LPSIS			LASIS			LTH1			LTH2			LTH3			LTH4			LLFE			LMFE			LSH1			LSH2			LSH3			LSH4			LLMAL			LMMAL			LCAL			LMTP5			LTOE			LMTP1			RPSIS			RASIS			RTH1			RTH2			RTH3			RTH4			RLFE			RMFE			RSH1			RSH2			RSH3			RSH4			RLMAL			RMMAL			RCAL			RMTP1			RTOE			RMTP5		
		X1	Y1	Z1	X2	Y2	Z2	X3	Y3	Z3	X4	Y4	Z4	X5	Y5	Z5	X6	Y6	Z6	X7	Y7	Z7	X8	Y8	Z8	X9	Y9	Z9	X10	Y10	Z10	X11	Y11	Z11	X12	Y12	Z12	X13	Y13	Z13	X14	Y14	Z14	X15	Y15	Z15	X16	Y16	Z16	X17	Y17	Z17	X18	Y18	Z18	X19	Y19	Z19	X20	Y20	Z20	X21	Y21	Z21	X22	Y22	Z22	X23	Y23	Z23	X24	Y24	Z24	X25	Y25	Z25	X26	Y26	Z26	X27	Y27	Z27	X28	Y28	Z28	X29	Y29	Z29	X30	Y30	Z30	X31	Y31	Z31	X32	Y32	Z32	X33	Y33	Z33	X34	Y34	Z34	X35	Y35	Z35	X36	Y36	Z36

1108	4.42800	-1347.66467	992.04346	313.62912	-1525.83545	981.98529	375.79935	-1503.48401	777.21716	426.90939	-1528.08484	702.49597	418.62897	-1552.42493	633.26886	401.02734	-1599.22583	731.17902	391.34302	-1558.41406	509.39313	375.18701	-1540.63953	499.23315	257.81958	-1526.72791	321.61185	387.97729	-1505.49939	278.46130	376.82278	-1562.53699	325.39124	367.08835	-1554.88818	280.58560	360.13129	-1471.23914	105.56837	334.97644	-1491.94141	126.43321	260.05423	-1404.98743	47.02998	293.07816	-1591.30347	37.74527	358.75119	-1646.25940	48.23305	303.05695	-1613.06909	38.52336	251.74226	-1344.66931	991.05511	212.87599	-1498.96631	961.15991	124.37806	-1467.73572	803.36719	75.38291	-1484.69690	726.43262	68.43383	-1501.09058	645.98669	70.02317	-1557.47192	740.07935	93.38411	-1511.18542	477.83209	90.63026	-1529.67371	481.34869	207.25594	-1342.80176	421.77374	103.82144	-1317.92114	370.82141	100.78429	-1378.01392	371.04269	95.60915	-1340.45850	348.18353	102.89110	-1169.96362	296.52444	159.07613	-1204.82678	265.92175	228.96021	-1121.35327	320.22104	224.16093	-1169.75110	114.96056	221.46437	-1177.47656	102.55299	167.63786	-1133.73816	146.11801	121.36724
1109	4.43200	-1352.44495	993.31329	313.80359	-1530.73425	982.71252	376.06824	-1506.98865	777.91302	426.96045	-1531.20911	703.02710	418.78687	-1554.82764	633.48328	401.18869	-1602.27942	731.16254	391.41995	-1559.46301	509.54977	375.41150	-1541.72839	499.46689	258.07324	-1527.36523	321.69519	388.11523	-1506.02234	278.66428	376.98758	-1563.05823	325.38083	367.23160	-1555.39709	280.61920	360.25024	-1471.40100	105.77084	335.00116	-1492.05273	126.67368	260.14871	-1405.03662	47.21260	293.05774	-1591.31750	37.73864	358.75003	-1646.26538	48.22287	303.05640	-1613.10925	38.53571	251.76990	-1349.48291	992.45697	213.06238	-1503.77161	962.69775	124.68476	-1474.22241	804.82385	75.23357	-1491.64148	728.16492	68.14822	-1508.88940	647.99213	69.56670	-1564.42847	742.54443	93.02721	-1521.16956	480.14828	90.09849	-1540.05359	483.61386	206.75961	-1353.77271	423.47672	104.22145	-1328.76990	372.60162	100.38570	-1388.44714	373.63834	95.12808	-1351.25024	350.08908	102.25307	-1181.32251	296.81125	158.82025	-1216.04956	266.58096	228.53709	-1131.62341	319.50732	223.59583	-1183.38660	115.09778	220.21150	-1192.03955	103.26827	166.44736	-1147.97363	146.28423	119.93884
1110	4.43600	-1357.26855	994.54706	314.06522	-1535.48169	983.39764	376.34607	-1510.49048	778.58636	427.01950	-1534.04065	703.52533	418.90723	-1557.08057	633.71515	401.41971	-1606.11841	731.40955	391.85635	-1560.88562	509.72360	375.62366	-1542.57141	499.76746	258.30847	-1527.84766	321.86591	388.30530	-1506.64111	278.95474	377.19031	-1563.58716	325.46509	367.50558	-1555.82227	280.69022	360.42245	-1471.57104	106.01567	335.09662	-1492.15637	126.90739	260.25623	-1405.06982	47.34420	293.05524	-1591.35071	37.75025	358.74255	-1646.28918	48.24958	303.09015	-1613.14355	38.51913	251.83458	-1354.28198	993.92487	213.21547	-1508.44666	964.16138	125.01824	-1479.29761	806.56366	74.57076	-1498.55493	729.91589	67.85319	-1516.82361	649.86926	69.19643	-1571.37280	745.02789	92.61163	-1531.07764	482.40848	89.61933	-1550.02332	485.94440	206.17793	-1363.86951	425.33719	104.02885	-1339.43103	374.25775	100.07077	-1399.12683	375.54373	94.62376	-1362.16003	351.72668	101.69278	-1192.71448	296.88583	158.51166	-1227.69434	267.09866	228.16725	-1142.05811	318.54224	222.98204	-1197.28601	115.05372	219.05087	-1206.85205	103.71783	165.33565	-1162.34473	146.22485	118.55573
1111	4.44000	-1362.17847	995.61298	314.23962	-1540.21277	984.10358	376.66559	-1513.84216	779.27985	427.13031	-1536.83582	704.00909	419.04016	-1559.30664	634.07837	401.62332	-1609.13623	731.37860	392.00784	-1561.85559	509.93124	375.93307	-1543.95593	499.93219	258.55008	-1528.19568	322.05072	388.47571	-1506.89331	279.16660	377.37329	-1564.09888	325.60635	367.81171	-1556.11829	280.81729	360.65833	-1471.77356	106.24933	335.21127	-1492.27173	127.14641	260.33734	-1405.18909	47.53798	292.99365	-1591.44189	37.80724	358.76544	-1646.31787	48.20829	303.11102	-1613.11755	38.56591	251.82671	-1359.08142	995.27673	213.38338	-1513.17725	965.62592	125.33060	-1487.02893	807.71021	75.23193	-1506.26758	731.53918	67.89331	-1524.48718	651.79187	68.83462	-1577.86584	747.19977	92.23600	-1540.92383	484.72977	89.17003	-1560.95874	488.63632	205.77733	-1374.29321	426.88757	103.95677	-1350.27344	375.62830	99.68305	-1410.24561	376.91238	94.14727	-1373.05298	353.30020	101.04524	-1204.07544	296.77643	158.16716	-1239.26965	267.33572	227.70232	-1152.40833	317.30380	222.34842	-1211.28784	114.86920	217.87790	-1221.54785	103.96506	164.18765	-1176.84619	145.94543	117.23058
1112	4.44400	-1367.00171	996.81671	314.43250	-1544.94446	984.87347	376.94690	-1517.04541	779.96252	427.22061	-1539.44470	704.40863	419.18109	-1561.36743	634.33832	401.84998	-1612.08081	731.33813	392.22134	-1563.06189	510.12030	376.24194	-1544.95447	500.22104	258.76822	-1528.57483	322.25122	388.75085	-1507.18396	279.48691	377.56647	-1564.44519	325.70859	368.06662	-1556.40454	280.98447	360.96307	-1471.90417	106.48952	335.29138	-1492.40222	127.31899	260.41754	-1405.26501	47.71403	293.01801	-1591.46399	37.77662	358.79559	-1646.34717	48.18882	303.19440	-1613.19287	38.52814	251.90005	-1363.80859	996.74744	213.46669	-1517.90613	967.08710	125.65541	-1493.11475	809.21777	75.08176	-1513.14001	733.29041	67.60121	-1532.23389	653.80768	68.40374	-1585.06335	750.05914	92.56720	-1550.65955	487.02637	88.70921	-1572.27649	491.47867	205.49802	-1384.66309	428.17831	103.97095	-1361.04236	376.80255	99.32253	-1421.20483	378.21503	93.53656	-1383.87781	354.63339	100.45003	-1215.56348	296.38953	157.77193	-1250.69592	267.31873	227.33121	-1162.95764	315.79498	221.68225	-1225.42847	114.47456	216.78262	-1236.27136	104.00774	163.08617	-1191.30359	145.41078	115.89302
1113	4.44800	-1371.72656	997.91718	314.48050	-1549.48499	985.52997	377.19940	-1519.46997	780.34186	426.87350	-1542.09814	704.94214	419.37881	-1563.09216	635.03577	401.59805	-1614.97815	731.32141	392.46786	-1563.90918	510.23401	376.50256	-1546.15845	500.57004	258.95740	-1528.72998	322.49500	388.96405	-1507.26453	279.74402	377.75592	-1564.66833	325.78552	368.33252	-1556.60120	281.12033	361.27661	-1471.93750	106.64845	335.35907	-1492.53271	127.52613	260.41492	-1405.30444	47.87586	292.91302	-1591.43542	37.77225	358.78125	-1646.33521	48.15474	303.20508	-1613.16992	38.54310	251.86687	-1368.59412	998.06238	213.56320	-1522.73462	968.61536	125.93637	-1499.26819	810.83325	74.87306	-1519.84558	735.07831	67.32867	-1539.94092	655.78558	68.11519	-1591.57739	752.60101	91.68082	-1560.32959	489.44986	88.20766	-1582.71680	494.09732	205.16541	-1395.00122	429.21301	103.72230	-1371.81213	377.66418	98.91777	-1431.87720	379.71478	93.09175	-1394.90515	355.73181	99.96554	-1226.97400	295.66946	157.29942	-1262.23523	267.02808	226.80826	-1173.50793	314.06332	220.94466	-1239.66406	113.91939	215.65117	-1252.16919	103.88661	162.03474	-1205.75671	144.79590	114.60419
1114	4.45200	-1376.43701	998.95630	314.45279	-1554.16882	986.24646	377.44296	-1522.51123	780.99005	426.98270	-1544.64282	705.53802	419.45703	-1565.28735	635.00433	402.25153	-1617.66321	731.25006	392.70483	-1564.62537	510.44147	376.80960	-1547.25354	500.86777	259.08328	-1528.80115	322.72623	389.13058	-1507.25452	280.03085	377.86234	-1564.85095	325.88739	368.66196	-1556.63281	281.23386	361.60657	-1471.94702	106.79347	335.37051	-1492.69690	127.73450	260.40631	-1405.32666	48.01358	292.87299	-1591.42615	37.76169	358.77274	-1646.34607	48.11795	303.22925	-1613.20850	38.51230	251.87659	-1373.29590	999.36481	213.64880	-1527.42029	970.04749	126.28329	-1505.36853	812.40698	74.66163	-1526.59558	736.87854	67.07101	-1547.57263	657.78186	67.74422	-1599.23108	754.88995	91.51225	-1569.99451	491.82632	87.73303	-1591.80981	496.37198	204.71260	-1405.21277	430.11664	103.49626	-1382.56177	378.39450	98.42256	-1442.40991	381.38376	92.96394	-1405.90063	356.55527	98.95647	-1238.44666	294.89270	156.67960	-1273.86853	266.60583	226.29207	-1184.17603	312.04477	220.10429	-1254.03711	113.13801	214.47617	-1266.08032	103.63743	160.87926	-1220.29224	143.88177	113.29266
1115	4.45600	-1381.20691	999.97748	314.54208	-1558.75342	986.90613	377.70337	-1525.69189	781.63446	427.06409	-1547.16614	706.00409	419.59445	-1566.16284	634.96558	401.90646	-1620.55212	731.09460	393.06281	-1565.54553	510.68567	377.06323	-1548.32800	501.19308	259.24951	-1528.85168	323.00983	389.28711	-1507.29712	280.37875	378.01065	-1564.99219	325.99942	368.98553	-1556.75415	281.44760	361.95889	-1472.02112	106.94902	335.36053	-1492.93604	128.13498	260.53079	-1405.27759	48.08169	292.86401	-1591.39966	37.72464	358.75552	-1646.34888	48.06892	303.24258	-1613.25024	38.49039	251.86134	-1378.01001	1000.65192	213.61908	-1532.08289	971.51508	126.54690	-1511.28271	814.06122	74.43512	-1533.33472	738.69092	66.78519	-1555.15820	659.79584	67.34583	-1603.92456	757.33630	91.03046	-1579.49084	494.23181	87.23051	-1601.39709	498.95160	204.32578	-1416.08704	430.55173	103.61839	-1393.27295	378.89288	97.97028	-1453.13928	382.57520	92.49082	-1416.93079	357.30179	98.57474	-1249.91272	293.86740	156.03314	-1285.61206	265.95886	225.61958	-1195.06372	309.79364	219.31238	-1268.71204	112.31522	213.36601	-1280.97461	103.17744	159.73300	-1234.94202	142.72563	112.08868
